<?xml version="1.0" standalone="no"?>
<!DOCTYPE svg PUBLIC "-//W3C//DTD SVG 20010904//EN"
 "http://www.w3.org/TR/2001/REC-SVG-20010904/DTD/svg10.dtd">
<svg version="1.0" xmlns="http://www.w3.org/2000/svg"
 width="420.000000pt" height="412.000000pt" viewBox="0 0 420.000000 412.000000"
 preserveAspectRatio="xMidYMid meet">

<g transform="translate(0.000000,412.000000) scale(0.100000,-0.100000)"
fill="#000000" stroke="none">
<path d="M0 2060 l0 -2060 2100 0 2100 0 0 2060 0 2060 -2100 0 -2100 0 0
-2060z m2351 1454 c41 -20 79 -72 79 -106 0 -50 -105 -397 -155 -512 -7 -17
-4 -18 36 -12 24 3 204 9 399 12 404 7 481 1 518 -41 32 -38 29 -95 -9 -170
-35 -71 -68 -106 -126 -141 l-42 -24 -253 11 c-159 7 -320 8 -432 2 l-179 -8
-12 -45 c-7 -25 -42 -153 -78 -285 -156 -571 -211 -905 -173 -1054 41 -160
150 -203 312 -122 99 50 185 121 299 247 187 206 238 254 274 254 45 0 114
-65 114 -108 0 -68 -115 -266 -224 -387 -123 -135 -270 -266 -357 -319 -143
-86 -284 -128 -432 -127 -206 1 -333 84 -410 268 -117 281 -80 605 186 1600 6
21 4 22 -22 14 -16 -5 -83 -21 -149 -35 -66 -14 -205 -48 -308 -76 -103 -27
-198 -50 -211 -50 -30 0 -73 52 -82 97 -9 46 13 98 56 136 76 65 316 149 646
227 92 22 171 43 174 47 4 4 47 127 95 273 48 146 100 292 115 325 33 74 75
112 133 119 23 3 53 7 67 9 41 6 123 -5 151 -19z"/>
</g>
</svg>
